<svg xmlns="http://www.w3.org/2000/svg" xmlns:xlink="http://www.w3.org/1999/xlink" width="33.76" height="32.06" viewBox="0 0 33.76 32.06"><defs><style>.cls-1{fill:url(#linear-gradient);}.cls-2{fill:url(#linear-gradient-2);}.cls-3{fill:url(#linear-gradient-3);}.cls-4{fill:url(#linear-gradient-4);}</style><linearGradient id="linear-gradient" y1="16.03" x2="33.76" y2="16.03" gradientUnits="userSpaceOnUse"><stop offset="0" stop-color="#f37b69"/><stop offset="1" stop-color="#fff"/></linearGradient><linearGradient id="linear-gradient-2" x1="9.79" y1="6.79" x2="31.28" y2="6.79" xlink:href="#linear-gradient"/><linearGradient id="linear-gradient-3" x1="24.4" y1="14.1" x2="31.27" y2="14.1" xlink:href="#linear-gradient"/><linearGradient id="linear-gradient-4" x1="9.83" y1="14.16" x2="16.68" y2="14.16" xlink:href="#linear-gradient"/></defs><title>Amit_sprite</title><path class="cls-1" d="M0,10.49c.06-.35.12-.71.19-1.06A3.36,3.36,0,0,1,1.83,7.1c.69-.41,1.37-.83,2.06-1.24a1.68,1.68,0,0,1,2.41.55,15.26,15.26,0,0,0,1,1.39q0-.17,0-.35,0-2.92,0-5.83A1.45,1.45,0,0,1,8.93,0h23.2a1.46,1.46,0,0,1,1.62,1.63q0,8.5,0,17a1.45,1.45,0,0,1-1.63,1.62H10.37a1.74,1.74,0,0,0,.12.17A23.58,23.58,0,0,0,14.66,24c.39.25.79.47,1.19.69a.56.56,0,0,0,.86-.18l1.38-1.77a1.69,1.69,0,0,1,2.46-.41l5.07,3.38a1.67,1.67,0,0,1,.55,2.45c-.35.59-.72,1.15-1,1.75A3.8,3.8,0,0,1,22,32a10.61,10.61,0,0,1-5.28-.83A23.6,23.6,0,0,1,10.23,27a39.49,39.49,0,0,1-7.74-8.62A15.28,15.28,0,0,1,.1,12.52L0,11.88ZM20.53,1.12H8.93c-.42,0-.49.07-.49.47q0,3.91,0,7.81a.83.83,0,0,0,.13.42c.36.56.74,1.12,1.11,1.68A1.69,1.69,0,0,1,9.28,14L7.54,15.33c-.37.29-.44.52-.2.91.57.9,1.17,1.77,1.76,2.66a.55.55,0,0,0,.52.25H32.07c.51,0,.56-.05.56-.57q0-8.44,0-16.88c0-.51-.05-.57-.57-.57ZM20.9,31c.53-.08,1.06-.14,1.59-.24A2.13,2.13,0,0,0,24,29.69c.42-.69.84-1.39,1.25-2.09a.57.57,0,0,0-.21-.9l-5.1-3.4a.59.59,0,0,0-.93.16l-1.38,1.77a2.14,2.14,0,0,1-.36.38,1.69,1.69,0,0,1-2,.1,20.86,20.86,0,0,1-5-3.86,20.84,20.84,0,0,1-3.93-5,1.69,1.69,0,0,1,.5-2.38l1.72-1.34c.4-.31.44-.55.17-1L5.37,7.06a.58.58,0,0,0-.92-.21L2.39,8.08A2.22,2.22,0,0,0,1.33,9.49a7.34,7.34,0,0,0-.1,2.94A14.36,14.36,0,0,0,3.54,18a38.75,38.75,0,0,0,6.88,7.73A25.42,25.42,0,0,0,16,29.65,11.76,11.76,0,0,0,20.9,31Z"/><path class="cls-2" d="M20.48,11.09a5.93,5.93,0,0,1-1.14-.53q-4.63-3.47-9.22-7c-.35-.27-.42-.6-.21-.88s.55-.27.91,0l9.06,6.87a.87.87,0,0,0,1.32,0l9-6.83a1.43,1.43,0,0,1,.3-.19.51.51,0,0,1,.67.18.51.51,0,0,1,0,.67,1.84,1.84,0,0,1-.3.26l-9,6.83a2.19,2.19,0,0,1-1.33.51Z"/><path class="cls-3" d="M25,10.41a4.41,4.41,0,0,1,.56.42L30,15.62,31,16.75c.3.33.32.67.06.9s-.58.2-.87-.12l-5.59-6c-.19-.2-.33-.45-.16-.71A2.36,2.36,0,0,1,25,10.41Z"/><path class="cls-4" d="M10.49,17.79A.57.57,0,0,1,9.88,17a1.26,1.26,0,0,1,.21-.29l5.44-5.83.11-.12a.59.59,0,0,1,.85-.1.57.57,0,0,1,0,.87L13,15.3c-.68.73-1.36,1.46-2,2.19A2.52,2.52,0,0,1,10.49,17.79Z"/></svg>