<svg xmlns="http://www.w3.org/2000/svg" xmlns:xlink="http://www.w3.org/1999/xlink" width="31.13" height="31.13" viewBox="0 0 31.13 31.13"><defs><style>.cls-1{fill:url(#linear-gradient);}.cls-2{fill:url(#linear-gradient-2);}</style><linearGradient id="linear-gradient" y1="15.57" x2="31.13" y2="15.57" gradientUnits="userSpaceOnUse"><stop offset="0" stop-color="#f37b69"/><stop offset="1" stop-color="#fff"/></linearGradient><linearGradient id="linear-gradient-2" x1="8.86" y1="15.57" x2="22.28" y2="15.57" xlink:href="#linear-gradient"/></defs><title>Amit_sprite</title><path class="cls-1" d="M0,13.93a5.53,5.53,0,0,1,.29-.66,1.92,1.92,0,0,1,1.4-.92c.62-.11,1.24-.2,1.85-.32a.47.47,0,0,0,.29-.24q.38-.86.71-1.74a.43.43,0,0,0,0-.34c-.35-.52-.72-1-1.09-1.54a1.94,1.94,0,0,1,.24-2.71L5.37,3.75a1.94,1.94,0,0,1,2.74-.21c.48.34,1,.68,1.43,1a.37.37,0,0,0,.44,0c.54-.25,1.09-.48,1.65-.7a.41.41,0,0,0,.29-.36c.12-.7.22-1.4.37-2.09A1.83,1.83,0,0,1,14,0c1,0,2,0,3,0a1.89,1.89,0,0,1,1.78,1.66c.11.62.21,1.24.31,1.86a.36.36,0,0,0,.27.32q.89.34,1.77.73a.36.36,0,0,0,.41,0c.51-.37,1-.73,1.53-1.09a1.91,1.91,0,0,1,2.59.2q.94.91,1.85,1.85a1.91,1.91,0,0,1,.19,2.6c-.35.51-.71,1-1.08,1.5a.4.4,0,0,0,0,.47q.36.8.67,1.62a.41.41,0,0,0,.36.3c.69.11,1.38.21,2.06.36a1.82,1.82,0,0,1,1.44,1.77q0,1.43,0,2.86a1.91,1.91,0,0,1-1.66,1.88c-.63.11-1.26.2-1.88.32a.47.47,0,0,0-.3.23q-.38.86-.72,1.74a.47.47,0,0,0,0,.37c.34.51.71,1,1.07,1.51a1.93,1.93,0,0,1-.21,2.67q-.87.89-1.76,1.76a1.93,1.93,0,0,1-2.69.22c-.5-.35-1-.7-1.48-1.06a.37.37,0,0,0-.44,0c-.54.24-1.08.47-1.62.67a.42.42,0,0,0-.32.38q-.14.93-.31,1.86a1.91,1.91,0,0,1-1.44,1.59l-.13.06h-3.4a.3.3,0,0,0-.08,0,1.93,1.93,0,0,1-1.52-1.72c-.09-.59-.2-1.18-.29-1.77a.38.38,0,0,0-.28-.35c-.55-.21-1.08-.45-1.63-.66a.47.47,0,0,0-.37,0c-.53.35-1,.73-1.56,1.1a1.92,1.92,0,0,1-2.64-.22q-.9-.88-1.78-1.78a1.92,1.92,0,0,1-.21-2.66c.34-.49.69-1,1-1.45a.39.39,0,0,0,0-.46c-.24-.53-.48-1.07-.68-1.62a.43.43,0,0,0-.38-.31c-.62-.1-1.24-.18-1.85-.32a3.1,3.1,0,0,1-.91-.38A2,2,0,0,1,0,17.33Zm29.38,1.66c0-.4,0-.79,0-1.19S29.29,14,29,14l-2.4-.4a1,1,0,0,1-.86-.78,9.87,9.87,0,0,0-1-2.49,1,1,0,0,1,.07-1.21c.48-.65.94-1.32,1.41-2a.32.32,0,0,0,0-.5c-.57-.55-1.13-1.11-1.68-1.68a.33.33,0,0,0-.52,0c-.65.48-1.32.95-2,1.42a1,1,0,0,1-1.11.1A11.48,11.48,0,0,0,18.2,5.33a.92.92,0,0,1-.71-.82c-.13-.8-.28-1.59-.4-2.4,0-.29-.16-.36-.44-.36-.76,0-1.52,0-2.28,0-.3,0-.41.11-.45.38-.12.77-.26,1.54-.38,2.31a1.05,1.05,0,0,1-.84,1,9.65,9.65,0,0,0-2.45,1A1,1,0,0,1,9,6.36c-.65-.48-1.32-.94-2-1.42a.3.3,0,0,0-.47,0c-.56.57-1.12,1.14-1.7,1.7a.33.33,0,0,0,0,.52c.47.65.92,1.31,1.4,2a1.11,1.11,0,0,1,.08,1.27,22.69,22.69,0,0,0-1,2.38,1.15,1.15,0,0,1-1,.89c-.76.11-1.52.25-2.28.37-.24,0-.34.13-.34.39q0,1.18,0,2.37c0,.26.1.35.34.39.81.13,1.61.28,2.42.41a1,1,0,0,1,.86.78,10,10,0,0,0,1,2.48,1,1,0,0,1-.08,1.24C5.88,22.75,5.44,23.41,5,24a.33.33,0,0,0,0,.52c.57.55,1.13,1.11,1.68,1.68a.33.33,0,0,0,.52,0c.63-.46,1.28-.89,1.9-1.36a1.17,1.17,0,0,1,1.35-.1,19.94,19.94,0,0,0,2.3.94,1.15,1.15,0,0,1,.88,1c.11.77.25,1.54.37,2.31a.31.31,0,0,0,.36.31c.79,0,1.58,0,2.37,0,.29,0,.38-.11.42-.38.12-.8.27-1.6.4-2.4a1,1,0,0,1,.77-.84,9.94,9.94,0,0,0,2.49-1,1,1,0,0,1,1.24.07c.64.48,1.31.92,1.95,1.4a.33.33,0,0,0,.52,0q.81-.84,1.65-1.65a.35.35,0,0,0,0-.54c-.47-.64-.91-1.29-1.38-1.93a1.11,1.11,0,0,1-.08-1.27,23.74,23.74,0,0,0,1-2.4,1.14,1.14,0,0,1,1-.86c.77-.11,1.54-.25,2.31-.37a.34.34,0,0,0,.33-.4C29.37,16.36,29.38,16,29.38,15.59Z"/><path class="cls-2" d="M15.56,8.86a6.71,6.71,0,1,1-6.7,6.71A6.72,6.72,0,0,1,15.56,8.86Zm-5,6.72a5,5,0,1,0,5-5A5,5,0,0,0,10.61,15.57Z"/></svg>