<svg xmlns="http://www.w3.org/2000/svg" xmlns:xlink="http://www.w3.org/1999/xlink" width="36.49" height="32.54" viewBox="0 0 36.49 32.54"><defs><style>.cls-1{fill:url(#linear-gradient);}.cls-2{fill:url(#linear-gradient-2);}</style><linearGradient id="linear-gradient" y1="7.28" x2="36.49" y2="7.28" gradientUnits="userSpaceOnUse"><stop offset="0" stop-color="#f37b69"/><stop offset="1" stop-color="#fff"/></linearGradient><linearGradient id="linear-gradient-2" x1="4.01" y1="23.57" x2="32.49" y2="23.57" xlink:href="#linear-gradient"/></defs><title>Amit_sprite</title><path class="cls-1" d="M0,13.42a4.9,4.9,0,0,1,.69-.78Q9.07,6.48,17.47.35A1.05,1.05,0,0,1,19,.35l16.9,12.37a1.14,1.14,0,0,1,.55.83.93.93,0,0,1-1.33.92,2.62,2.62,0,0,1-.42-.27L18.57,2.35a.44.44,0,0,0-.63,0L1.73,14.22c-.75.55-1.3.43-1.73-.37Z"/><path class="cls-2" d="M5.92,30.62H13.5c0-.16,0-.3,0-.44q0-3.78,0-7.56A4.73,4.73,0,0,1,23,22.08c.1,2.57,0,5.15,0,7.73,0,.26,0,.52,0,.81h7.58V30.2q0-7.25,0-14.51a1,1,0,0,1,1-1.09,1,1,0,0,1,.91.76,2.54,2.54,0,0,1,0,.46c0,5.16,0,10.31,0,15.47a1.11,1.11,0,0,1-1.25,1.25c-3,0-5.94,0-8.91,0-.9,0-1.23-.33-1.23-1.22q0-4.37,0-8.73A2.8,2.8,0,0,0,19.7,20a2.83,2.83,0,0,0-4.3,2.55c0,2.92,0,5.84,0,8.77,0,.9-.33,1.23-1.21,1.23-3,0-6,0-9,0A1.09,1.09,0,0,1,4,31.34C4,26.16,4,21,4,15.8a1.7,1.7,0,0,1,.1-.63.92.92,0,0,1,1-.55,1,1,0,0,1,.75.92c0,.12,0,.24,0,.36q0,7.13,0,14.26Z"/></svg>