<svg xmlns="http://www.w3.org/2000/svg" xmlns:xlink="http://www.w3.org/1999/xlink" width="31.43" height="31.43" viewBox="0 0 31.43 31.43"><defs><style>.cls-1{fill:url(#linear-gradient);}.cls-2{fill:url(#linear-gradient-2);}.cls-3{fill:url(#linear-gradient-3);}</style><linearGradient id="linear-gradient" y1="15.71" x2="31.43" y2="15.71" gradientUnits="userSpaceOnUse"><stop offset="0" stop-color="#f09366"/><stop offset="1" stop-color="#f45f6d"/></linearGradient><linearGradient id="linear-gradient-2" x1="14.24" y1="19.15" x2="17.18" y2="19.15" xlink:href="#linear-gradient"/><linearGradient id="linear-gradient-3" x1="13.75" y1="8.35" x2="17.68" y2="8.35" xlink:href="#linear-gradient"/></defs><title>Amit_sprite</title><path class="cls-1" d="M15.7,31.43a15.7,15.7,0,1,1,15.72-15.7A15.73,15.73,0,0,1,15.7,31.43ZM15.7,2A13.81,13.81,0,0,0,2,15.71,13.8,13.8,0,0,0,15.68,29.48,13.82,13.82,0,0,0,29.48,15.72,13.8,13.8,0,0,0,15.75,2Z"/><path class="cls-2" d="M14.25,19.17c0-1.5,0-3,0-4.49a1.35,1.35,0,0,1,.9-1.3,1.4,1.4,0,0,1,1.56.28,1.47,1.47,0,0,1,.47,1.16c0,1.1,0,2.19,0,3.29,0,1.79,0,3.59,0,5.38a1.47,1.47,0,1,1-2.93,0c0-1.46,0-2.91,0-4.37Z"/><path class="cls-3" d="M15.72,6.39a2,2,0,1,1-2,1.94A2,2,0,0,1,15.72,6.39Z"/></svg>