<svg id="_Layer_" data-name="&lt;Layer&gt;" xmlns="http://www.w3.org/2000/svg" xmlns:xlink="http://www.w3.org/1999/xlink" width="24.43" height="24.43" viewBox="0 0 24.43 24.43"><defs><style>.cls-1{fill:url(#linear-gradient);}.cls-2{fill:url(#linear-gradient-2);}</style><linearGradient id="linear-gradient" y1="12.21" x2="24.43" y2="12.21" gradientUnits="userSpaceOnUse"><stop offset="0" stop-color="#f19466"/><stop offset="1" stop-color="#f55f6d"/></linearGradient><linearGradient id="linear-gradient-2" x1="9.42" y1="12.21" x2="16.59" y2="12.21" xlink:href="#linear-gradient"/></defs><title>Amit_sprite</title><path class="cls-1" d="M24.42,11.82A12.21,12.21,0,1,0,11.82,24.42h.4A12.22,12.22,0,0,0,24.42,11.82Zm-5.28,7.11a9.56,9.56,0,0,1-6.93,2.93H11.9a9.64,9.64,0,0,1,.32-19.28h.32a9.64,9.64,0,0,1,6.61,16.34Z"/><path class="cls-2" d="M16.22,11.5,10.8,7.62a.87.87,0,0,0-1.38.71V16.1a.87.87,0,0,0,1.38.71l5.42-3.88A.87.87,0,0,0,16.22,11.5Z"/></svg>