<svg id="_Layer_" data-name="&lt;Layer&gt;" xmlns="http://www.w3.org/2000/svg" xmlns:xlink="http://www.w3.org/1999/xlink" width="24.43" height="24.43" viewBox="0 0 24.43 24.43"><defs><style>.cls-1{fill:url(#linear-gradient);}.cls-2{fill:url(#linear-gradient-2);}.cls-3{fill:url(#linear-gradient-3);}</style><linearGradient id="linear-gradient" y1="12.22" x2="24.43" y2="12.22" gradientUnits="userSpaceOnUse"><stop offset="0" stop-color="#f19466"/><stop offset="1" stop-color="#f55f6d"/></linearGradient><linearGradient id="linear-gradient-2" x1="13.61" y1="12.11" x2="16.05" y2="12.11" xlink:href="#linear-gradient"/><linearGradient id="linear-gradient-3" x1="8.73" y1="12.11" x2="11.17" y2="12.11" xlink:href="#linear-gradient"/></defs><title>Amit_sprite</title><path class="cls-1" d="M24.43,11.5v1.43a1.63,1.63,0,0,0,0,.21A11.3,11.3,0,0,1,23,17.95a12,12,0,0,1-10.27,6.46A11.19,11.19,0,0,1,6.49,23,12,12,0,0,1,0,12.73,11.19,11.19,0,0,1,1.44,6.49,12,12,0,0,1,11.7,0a11.32,11.32,0,0,1,6.24,1.41,12,12,0,0,1,6.29,8.65C24.33,10.56,24.37,11,24.43,11.5Zm-12.21,11A10.26,10.26,0,1,0,2,12.22,10.27,10.27,0,0,0,12.21,22.47Z"/><path class="cls-2" d="M16.05,12.11c0,1.51,0,3,0,4.53a1.23,1.23,0,0,1-.86,1.28,1.21,1.21,0,0,1-1.55-1,2,2,0,0,1,0-.33q0-4.52,0-9a1.24,1.24,0,0,1,1-1.3A1.21,1.21,0,0,1,16,7.34c0,.12,0,.24,0,.36Q16.05,9.9,16.05,12.11Z"/><path class="cls-3" d="M8.73,12.12q0-2.29,0-4.58a1.22,1.22,0,0,1,2.43-.18c0,.07,0,.14,0,.21q0,4.54,0,9.08a1.22,1.22,0,0,1-1,1.29,1.2,1.2,0,0,1-1.43-1.16c0-.93,0-1.86,0-2.79Q8.73,13.06,8.73,12.12Z"/></svg>