<svg xmlns="http://www.w3.org/2000/svg" xmlns:xlink="http://www.w3.org/1999/xlink" width="26.06" height="31.17" viewBox="0 0 26.06 31.17"><defs><style>.cls-1{fill:url(#linear-gradient);}.cls-2{fill:url(#linear-gradient-2);}.cls-3{fill:url(#linear-gradient-3);}.cls-4{fill:url(#linear-gradient-4);}.cls-5{fill:url(#linear-gradient-5);}.cls-6{fill:url(#linear-gradient-6);}.cls-7{fill:url(#linear-gradient-7);}.cls-8{fill:url(#linear-gradient-8);}</style><linearGradient id="linear-gradient" x1="4.25" y1="15.58" x2="26.06" y2="15.58" gradientUnits="userSpaceOnUse"><stop offset="0" stop-color="#f37b69"/><stop offset="1" stop-color="#fff"/></linearGradient><linearGradient id="linear-gradient-2" x1="0" y1="17.13" x2="8.92" y2="17.13" xlink:href="#linear-gradient"/><linearGradient id="linear-gradient-3" x1="11.01" y1="15.58" x2="23.98" y2="15.58" xlink:href="#linear-gradient"/><linearGradient id="linear-gradient-4" x1="11.01" y1="27.01" x2="23.97" y2="27.01" xlink:href="#linear-gradient"/><linearGradient id="linear-gradient-5" x1="11.01" y1="9.87" x2="23.97" y2="9.87" xlink:href="#linear-gradient"/><linearGradient id="linear-gradient-6" x1="11.01" y1="21.29" x2="23.98" y2="21.29" xlink:href="#linear-gradient"/><linearGradient id="linear-gradient-7" x1="6.33" y1="9.35" x2="9.96" y2="9.35" xlink:href="#linear-gradient"/><linearGradient id="linear-gradient-8" x1="6.33" y1="15.07" x2="9.95" y2="15.07" xlink:href="#linear-gradient"/></defs><title>Amit_sprite</title><path class="cls-1" d="M22.58,0c.42.22.36.63.37,1h1.38a1.58,1.58,0,0,1,1.72,1.72q0,13.35,0,26.69a1.57,1.57,0,0,1-1.72,1.72H6a1.57,1.57,0,0,1-1.73-1.74q0-3.44,0-6.88a1.66,1.66,0,0,1,0-.3.47.47,0,0,1,.46-.41.46.46,0,0,1,.52.33,1.41,1.41,0,0,1,0,.42q0,3.39,0,6.79c0,.6.15.76.75.76H24.27c.58,0,.75-.16.75-.74q0-13.28,0-26.57c0-.59-.16-.75-.77-.75H23l-.09,0c0,.32,0,.65,0,1,0,.08.14.18.23.23a1.56,1.56,0,1,1-1.51,0,.39.39,0,0,0,.24-.42c0-.26,0-.53,0-.81H15.67c0,.34,0,.67,0,1,0,.08.14.17.24.23a1.56,1.56,0,0,1,.74,1.75,1.55,1.55,0,0,1-3,.07,1.53,1.53,0,0,1,.76-1.83.31.31,0,0,0,.2-.33c0-.29,0-.58,0-.89H8.4c0,.34,0,.67,0,1,0,.08.14.17.23.23a1.51,1.51,0,0,1,.78,1.5A1.45,1.45,0,0,1,8.37,6.15a1.48,1.48,0,0,1-1.64-.42,1.54,1.54,0,0,1,.42-2.41A.32.32,0,0,0,7.37,3c0-.28,0-.57,0-.87-.57,0-1.12,0-1.67,0a.44.44,0,0,0-.4.47c0,.11,0,.22,0,.33q0,4.64,0,9.28a1.55,1.55,0,0,1,0,.42.46.46,0,0,1-.53.35.47.47,0,0,1-.45-.42,1.74,1.74,0,0,1,0-.3q0-4.72,0-9.43A1.59,1.59,0,0,1,6,1H7.36c0-.39-.08-.82.38-1H8c.44.22.36.65.37,1h6.2c.07-.76.07-.76.37-1h.3c.48.19.37.64.4,1H21.9c0-.39-.07-.81.38-1ZM8.4,4.68a.51.51,0,0,0-1,0,.51.51,0,0,0,1,0Zm14,.5a.52.52,0,0,0,.52-.51.54.54,0,0,0-.51-.51.52.52,0,0,0-.52.52A.51.51,0,0,0,22.42,5.18Zm-7.28-1a.52.52,0,0,0-.49.54.5.5,0,0,0,.52.48.5.5,0,0,0,.49-.54A.51.51,0,0,0,15.14,4.16Z"/><path class="cls-2" d="M1.54,12.43A1.77,1.77,0,0,1,2.85,13l4.47,4.85A4.11,4.11,0,0,1,8.4,20.38a.69.69,0,0,0,.14.31c.07.11.19.19.27.29a.51.51,0,0,1,0,.69.46.46,0,0,1-.66,0,1.83,1.83,0,0,0-1.17-.53A3.91,3.91,0,0,1,4.86,20C3.41,18.39,2,16.81.5,15.24a1.62,1.62,0,0,1,.63-2.73A3.78,3.78,0,0,1,1.54,12.43Zm5.74,7.75a.27.27,0,0,0,0-.07,1,1,0,0,0,0-.15,3.24,3.24,0,0,0-.84-1.53L3.29,15l-.13-.13-.84.79c1.12,1.21,2.23,2.42,3.35,3.62A2.81,2.81,0,0,0,7.28,20.18ZM1.56,14.84l.85-.78c-.26-.27-.44-.64-.9-.57a.52.52,0,0,0-.45.43C1,14.39,1.36,14.59,1.56,14.84Z"/><path class="cls-3" d="M17.49,16.1H11.8a1.88,1.88,0,0,1-.39,0,.5.5,0,0,1,0-1,1.63,1.63,0,0,1,.36,0H23.32c.42,0,.66.2.66.52s-.23.52-.65.52H17.49Z"/><path class="cls-4" d="M17.5,27.53H11.78a2.08,2.08,0,0,1-.33,0A.47.47,0,0,1,11,27a.47.47,0,0,1,.37-.52,1.25,1.25,0,0,1,.33,0H23.28a1.15,1.15,0,0,1,.36,0,.47.47,0,0,1,.34.52.48.48,0,0,1-.42.46,2.14,2.14,0,0,1-.36,0Z"/><path class="cls-5" d="M17.48,10.39H11.79a1.75,1.75,0,0,1-.39,0,.5.5,0,0,1,0-1,2.16,2.16,0,0,1,.36,0H23.18a2.2,2.2,0,0,1,.39,0,.5.5,0,0,1,0,1,1.57,1.57,0,0,1-.42,0Z"/><path class="cls-6" d="M17.47,21.81H11.81a2,2,0,0,1-.39,0,.5.5,0,0,1-.05-1,1.36,1.36,0,0,1,.39,0H23.34c.41,0,.65.22.64.54s-.24.5-.64.5Z"/><path class="cls-7" d="M7.78,9.65,9,8.07a.52.52,0,0,1,.81-.14.47.47,0,0,1,.08.66Q9.1,9.65,8.3,10.69a.5.5,0,0,1-.8.05q-.52-.49-1-1a.5.5,0,0,1,0-.74.5.5,0,0,1,.73,0C7.42,9.2,7.58,9.42,7.78,9.65Z"/><path class="cls-8" d="M7.8,15.34,8.89,13.9a1.94,1.94,0,0,1,.17-.21.51.51,0,0,1,.69-.07.5.5,0,0,1,.12.68c-.17.26-.36.51-.55.76-.31.42-.63.85-.95,1.26a.54.54,0,0,1-.92.08Q7,16,6.54,15.5a.52.52,0,1,1,.74-.72C7.45,14.94,7.61,15.13,7.8,15.34Z"/></svg>