<?xml version="1.0" standalone="no"?>
<!DOCTYPE svg PUBLIC "-//W3C//DTD SVG 20010904//EN"
 "http://www.w3.org/TR/2001/REC-SVG-20010904/DTD/svg10.dtd">
<svg version="1.0" xmlns="http://www.w3.org/2000/svg"
 width="512.000000pt" height="512.000000pt" viewBox="0 0 512.000000 512.000000"
 preserveAspectRatio="xMidYMid meet" style="background-color:black;">
<metadata>
Created by potrace 1.15, written by Peter Selinger 2001-2017
</metadata>
<g transform="translate(0.000000,512.000000) scale(0.100000,-0.100000)"
fill="white" stroke="none">
<path d="M3050 4770 c-444 -79 -850 -382 -1049 -785 -107 -214 -151 -399 -157
-650 l-4 -159 -698 -701 c-385 -385 -713 -721 -730 -746 -52 -77 -74 -145 -79
-244 -6 -108 6 -175 49 -264 28 -59 72 -106 402 -437 303 -302 381 -375 427
-398 154 -75 322 -75 472 0 62 31 421 380 443 431 47 110 -38 243 -155 243
-66 -1 -111 -33 -271 -195 -85 -86 -167 -163 -182 -171 -35 -18 -101 -18 -136
0 -15 8 -176 165 -358 348 -234 235 -335 343 -343 367 -27 82 -55 50 760 866
436 437 750 759 751 770 1 11 2 117 2 235 1 200 3 222 28 312 92 334 301 590
602 738 111 55 240 95 338 106 l63 7 -130 -134 c-73 -76 -142 -156 -157 -185
-76 -142 -77 -326 -2 -477 38 -75 624 -663 704 -706 150 -80 324 -81 478 -4
38 19 100 71 191 158 l134 130 -7 -57 c-36 -285 -203 -571 -439 -749 -103 -78
-274 -161 -403 -196 -92 -25 -114 -27 -314 -29 -118 0 -224 -2 -235 -2 -22 -2
-788 -761 -811 -804 -19 -36 -18 -122 2 -164 32 -67 119 -104 197 -83 36 9 88
57 388 356 l346 345 164 3 c410 7 741 146 1025 429 213 214 332 427 401 716
46 199 40 563 -13 689 -41 99 -150 140 -242 92 -20 -11 -147 -130 -282 -266
-135 -135 -257 -253 -272 -261 -35 -18 -101 -18 -136 0 -15 8 -149 137 -299
288 -291 293 -300 306 -283 384 7 31 54 82 269 298 170 171 265 274 276 298
29 72 14 148 -41 200 -76 71 -436 102 -684 58z"/>
<path d="M2670 3203 c-92 -35 -137 -153 -91 -241 28 -53 347 -368 393 -387
116 -47 237 33 238 158 0 27 -5 58 -11 70 -16 31 -359 376 -391 393 -26 14
-108 18 -138 7z"/>
</g>
</svg>
