<svg id="Layer_1" data-name="Layer 1" xmlns="http://www.w3.org/2000/svg" width="23.43" height="22.29" viewBox="0 0 23.43 22.29"><defs><style>.cls-1{fill:#fff;}</style></defs><title>Uniliver_Resin_EBM_Sprite</title><path class="cls-1" d="M20,22.29H14.23a.75.75,0,0,1-.75-.75V16H10v5.52a.76.76,0,0,1-.75.75H3.44a.76.76,0,0,1-.75-.75V11.65a.75.75,0,0,1,1.5,0v9.14h4.3V15.27a.76.76,0,0,1,.75-.75h5a.76.76,0,0,1,.75.75v5.52h4.26V11.65a.75.75,0,0,1,1.5,0v9.89A.76.76,0,0,1,20,22.29Z"/><path class="cls-1" d="M22.68,12.46a.74.74,0,0,1-.53-.22L11.72,1.81,1.28,12.24a.74.74,0,0,1-1.06,0,.75.75,0,0,1,0-1.06l11-11A.79.79,0,0,1,11.72,0h0a.79.79,0,0,1,.53.22l11,11a.75.75,0,0,1,0,1.06A.74.74,0,0,1,22.68,12.46Z"/><path class="cls-1" d="M19.19,5a.75.75,0,0,1-.75-.75V2.8H17a.75.75,0,0,1,0-1.5h2.16a.74.74,0,0,1,.75.75V4.21A.74.74,0,0,1,19.19,5Z"/></svg>