<?xml version="1.0" standalone="no"?>
<!DOCTYPE svg PUBLIC "-//W3C//DTD SVG 20010904//EN"
 "http://www.w3.org/TR/2001/REC-SVG-20010904/DTD/svg10.dtd">
<svg version="1.0" xmlns="http://www.w3.org/2000/svg"
 width="640.000000pt" height="640.000000pt" viewBox="0 0 640.000000 640.000000"
 preserveAspectRatio="xMidYMid meet" style="background-color:black;">
<metadata>
Created by potrace 1.15, written by Peter Selinger 2001-2017
</metadata>
<g transform="translate(0.000000,640.000000) scale(0.100000,-0.100000)"
fill="white" stroke="none">
<path d="M1400 5904 c-150 -32 -283 -132 -345 -258 -46 -92 -55 -148 -55 -322
l0 -144 -132 0 c-145 -1 -166 -7 -199 -56 -23 -35 -24 -75 -4 -114 26 -50 59
-60 205 -60 l130 0 0 -350 0 -350 -135 0 c-98 0 -144 -4 -164 -14 -71 -37 -66
-162 9 -201 21 -11 62 -15 160 -15 l130 0 0 -360 0 -360 -130 0 c-147 0 -194
-12 -210 -55 -23 -60 -5 -116 45 -140 25 -11 66 -15 164 -15 l131 0 0 -360 0
-360 -130 0 c-146 0 -179 -10 -205 -60 -34 -66 -7 -135 65 -164 29 -11 73 -16
155 -16 l115 0 0 -345 0 -345 -132 0 c-115 0 -137 -3 -166 -20 -51 -32 -68
-101 -37 -160 24 -47 48 -54 198 -58 l137 -4 0 -134 c0 -157 10 -215 55 -309
55 -114 161 -208 290 -257 l60 -23 1720 -3 c1204 -2 1736 1 1772 8 130 27 280
144 342 268 62 122 61 120 59 790 l-3 610 -110 -78 -110 -78 -5 -539 -5 -538
-25 -48 c-30 -60 -76 -102 -150 -136 l-55 -26 -1410 0 -1410 0 -3 2488 -2
2487 1418 0 c1585 0 1473 5 1553 -72 22 -22 51 -61 62 -86 l22 -47 5 -1192 5
-1192 113 80 112 80 0 1112 c0 1215 2 1169 -58 1281 -43 82 -145 177 -232 218
-41 20 -99 41 -128 47 -37 8 -550 11 -1735 10 -1406 0 -1693 -3 -1747 -15z
m510 -2715 l0 -2491 -227 4 c-255 4 -281 10 -361 82 -65 59 -84 118 -90 279
l-5 137 70 0 c49 0 74 -4 83 -14 20 -25 108 -49 156 -43 54 6 118 46 140 88
25 48 21 139 -7 190 -34 60 -68 82 -137 87 -64 5 -147 -23 -158 -52 -5 -12
-22 -16 -75 -16 l-69 0 0 345 0 345 65 0 c52 0 71 -5 100 -24 92 -63 226 -38
278 52 45 77 14 208 -62 259 -60 41 -209 21 -238 -32 -8 -13 -22 -15 -74 -13
l-64 3 0 355 0 355 58 3 c48 3 62 -1 90 -22 36 -28 107 -56 140 -56 66 0 151
78 166 152 15 69 -27 161 -87 192 -72 36 -171 25 -220 -25 -27 -28 -34 -30
-88 -27 l-59 3 0 355 0 355 58 3 c50 3 62 0 88 -22 16 -14 52 -32 79 -40 42
-13 58 -13 100 -2 102 26 151 112 128 220 -14 66 -77 131 -137 141 -66 11
-127 -2 -166 -36 -30 -27 -40 -30 -92 -27 l-58 3 0 345 0 345 57 3 c50 3 61
-1 102 -29 80 -57 192 -51 255 13 83 85 45 256 -66 304 -64 27 -157 13 -203
-31 -24 -23 -34 -26 -86 -23 l-59 3 1 140 c1 122 4 146 23 190 29 65 74 112
136 141 48 23 59 24 283 24 l232 0 0 -2491z"/>
<path d="M2855 4948 c-11 -6 -71 -60 -132 -121 l-113 -112 -72 72 c-105 102
-133 113 -186 68 -39 -33 -48 -74 -27 -119 23 -47 223 -241 259 -250 44 -11
81 16 250 181 139 136 156 157 156 186 0 42 -24 75 -66 93 -39 17 -43 17 -69
2z"/>
<path d="M3214 4831 c-42 -11 -52 -18 -70 -53 -20 -38 -14 -101 13 -130 43
-48 37 -48 792 -48 l710 0 36 31 c19 17 40 48 46 69 10 33 9 43 -7 71 -11 17
-35 40 -54 50 -33 18 -70 19 -735 18 -385 -1 -714 -4 -731 -8z"/>
<path d="M2734 3958 l-124 -122 -84 82 c-90 88 -110 96 -166 67 -36 -18 -57
-77 -42 -115 13 -32 142 -172 205 -222 90 -71 116 -58 340 169 115 118 127
133 127 166 0 50 -47 97 -97 97 -33 0 -48 -12 -159 -122z"/>
<path d="M3192 3930 c-42 -26 -67 -77 -58 -122 8 -43 39 -73 91 -87 49 -13
1381 -15 1438 -2 56 13 87 46 87 92 0 50 -14 84 -46 114 l-27 25 -726 0 c-707
0 -727 -1 -759 -20z"/>
<path d="M2870 3203 c-8 -3 -70 -60 -137 -126 l-122 -121 -84 82 c-98 95 -124
103 -179 53 -26 -23 -33 -37 -33 -68 0 -36 9 -49 95 -142 139 -149 181 -172
248 -137 15 8 96 84 180 168 137 139 152 158 152 189 0 44 -23 77 -66 95 -18
8 -35 14 -36 13 -2 0 -10 -3 -18 -6z"/>
<path d="M5075 2953 c-165 -113 -444 -313 -620 -443 -176 -130 -430 -310 -565
-400 -248 -165 -440 -300 -495 -346 l-30 -26 37 6 c51 9 93 -14 107 -57 9 -25
22 -39 52 -52 81 -37 149 -140 149 -227 0 -13 12 -34 25 -47 27 -25 33 -78 15
-127 -6 -15 -8 -29 -6 -32 7 -7 394 264 666 467 135 101 291 213 347 249 57
37 219 150 360 251 142 100 345 244 451 318 152 106 192 139 191 156 0 12 -4
57 -8 99 -8 77 -9 78 -95 197 -47 65 -88 126 -92 134 -4 12 -165 88 -184 87
-3 0 -140 -93 -305 -207z"/>
<path d="M3171 3054 c-56 -47 -52 -141 9 -181 l33 -23 632 0 c614 0 633 1 657
20 61 48 72 132 23 184 l-24 26 -650 0 -649 0 -31 -26z"/>
<path d="M3107 1322 c-54 -92 -105 -179 -114 -194 -15 -24 -15 -28 0 -52 12
-18 26 -26 45 -26 31 0 410 75 417 82 10 10 -35 134 -66 183 -41 65 -105 132
-150 155 l-35 19 -97 -167z"/>
</g>
</svg>
