<svg id="Layer_1" data-name="Layer 1" xmlns="http://www.w3.org/2000/svg" xmlns:xlink="http://www.w3.org/1999/xlink" viewBox="0 0 339.42 222.77"><defs><style>.cls-1{fill:none;}.cls-2{fill:url(#linear-gradient);}.cls-3{fill:url(#linear-gradient-2);}.cls-4{fill:url(#linear-gradient-3);}.cls-5{fill:url(#linear-gradient-4);}.cls-6{clip-path:url(#clip-path);}.cls-7{fill:#f19466;}.cls-8{fill:#f19366;}.cls-9{fill:#f19266;}.cls-10{fill:#f19166;}.cls-11{fill:#f19067;}.cls-12{fill:#f18f67;}.cls-13{fill:#f18e67;}.cls-14{fill:#f28d67;}.cls-15{fill:#f28c67;}.cls-16{fill:#f28b67;}.cls-17{fill:#f28a67;}.cls-18{fill:#f28967;}.cls-19{fill:#f28868;}.cls-20{fill:#f28768;}.cls-21{fill:#f28668;}.cls-22{fill:#f28568;}.cls-23{fill:#f28468;}.cls-24{fill:#f28368;}.cls-25{fill:#f28268;}.cls-26{fill:#f28169;}.cls-27{fill:#f38069;}.cls-28{fill:#f37f69;}.cls-29{fill:#f37e69;}.cls-30{fill:#f37d69;}.cls-31{fill:#f37c69;}.cls-32{fill:#f37b69;}.cls-33{fill:#f37a6a;}.cls-34{fill:#f3786a;}.cls-35{fill:#f3776a;}.cls-36{fill:#f3766a;}.cls-37{fill:#f3756a;}.cls-38{fill:#f3746a;}.cls-39{fill:#f3736a;}.cls-40{fill:#f4726a;}.cls-41{fill:#f4716b;}.cls-42{fill:#f4706b;}.cls-43{fill:#f46f6b;}.cls-44{fill:#f46e6b;}.cls-45{fill:#f46d6b;}.cls-46{fill:#f46c6b;}.cls-47{fill:#f46b6b;}.cls-48{fill:#f46a6c;}.cls-49{fill:#f4696c;}.cls-50{fill:#f4686c;}.cls-51{fill:#f4676c;}.cls-52{fill:#f4666c;}.cls-53{fill:#f5656c;}.cls-54{fill:#f5646c;}.cls-55{fill:#f5636c;}.cls-56{fill:#f5626d;}.cls-57{fill:#f5616d;}.cls-58{fill:#f5606d;}.cls-59{fill:#f55f6d;}.cls-60{clip-path:url(#clip-path-2);}</style><linearGradient id="linear-gradient" y1="168.15" x2="37.1" y2="168.15" gradientUnits="userSpaceOnUse"><stop offset="0" stop-color="#f19466"/><stop offset="1" stop-color="#f55f6d"/></linearGradient><linearGradient id="linear-gradient-2" x1="243.59" y1="41.51" x2="280.69" y2="41.51" xlink:href="#linear-gradient"/><linearGradient id="linear-gradient-3" y1="41.51" x2="37.1" y2="41.51" xlink:href="#linear-gradient"/><linearGradient id="linear-gradient-4" x1="243.59" y1="168.15" x2="280.69" y2="168.15" xlink:href="#linear-gradient"/><clipPath id="clip-path"><path class="cls-1" d="M123.56,205.56A79.05,79.05,0,0,1,85.75,196L79,209.87A94.1,94.1,0,0,0,123.56,221a95.25,95.25,0,0,0,85-52.72L190,169.73A79.76,79.76,0,0,1,123.56,205.56Z"/></clipPath><clipPath id="clip-path-2"><path class="cls-1" d="M122.42,157.58l10-28.24H108.24l33.22-78.89V183.58L168.36,164V119.47l25.39,39.64h30.4l-38.92-57.78L221,60H189.26l-20.9,24.53V57.33l.1.08L169,28.25V0H139.59L125.81,28.08l-2.25,0c-52.68,0-95.38,43.19-95.38,96.47a96.78,96.78,0,0,0,17.68,56L54,164.72a81.38,81.38,0,0,1-10.53-40.2c0-43.35,33.66-78.76,76-80.93L32.05,222.07l35.71.7,28.85-65.19Z"/></clipPath></defs><title>Landing</title><path class="cls-2" d="M37.1,186.7H8.26A8.27,8.27,0,0,1,0,178.44V149.6H3v28.84a5.27,5.27,0,0,0,5.26,5.26H37.1Z"/><path class="cls-3" d="M280.69,60.06h-3V31.22A5.27,5.27,0,0,0,272.43,26H243.59V23h28.84a8.27,8.27,0,0,1,8.26,8.26Z"/><path class="cls-4" d="M3,60.06H0V31.22A8.27,8.27,0,0,1,8.26,23H37.1v3H8.26A5.27,5.27,0,0,0,3,31.22Z"/><path class="cls-5" d="M272.43,186.7H243.59v-3h28.84a5.27,5.27,0,0,0,5.26-5.26V149.6h3v28.84A8.27,8.27,0,0,1,272.43,186.7Z"/><g class="cls-6"><rect class="cls-7" x="79.04" y="168.28" width="2.44" height="52.72"/><rect class="cls-8" x="81.49" y="168.28" width="2.44" height="52.72"/><rect class="cls-9" x="83.93" y="168.28" width="2.44" height="52.72"/><rect class="cls-10" x="86.37" y="168.28" width="2.44" height="52.72"/><rect class="cls-11" x="88.82" y="168.28" width="2.44" height="52.72"/><rect class="cls-12" x="91.26" y="168.28" width="2.44" height="52.72"/><rect class="cls-13" x="93.71" y="168.28" width="2.44" height="52.72"/><rect class="cls-14" x="96.15" y="168.28" width="2.44" height="52.72"/><rect class="cls-15" x="98.59" y="168.28" width="2.44" height="52.72"/><rect class="cls-16" x="101.04" y="168.28" width="2.44" height="52.72"/><rect class="cls-17" x="103.48" y="168.28" width="2.44" height="52.72"/><rect class="cls-18" x="105.93" y="168.28" width="2.44" height="52.72"/><rect class="cls-19" x="108.37" y="168.28" width="2.44" height="52.72"/><rect class="cls-20" x="110.81" y="168.28" width="2.44" height="52.72"/><rect class="cls-21" x="113.26" y="168.28" width="2.44" height="52.72"/><rect class="cls-22" x="115.7" y="168.28" width="2.44" height="52.72"/><rect class="cls-23" x="118.15" y="168.28" width="2.44" height="52.72"/><rect class="cls-24" x="120.59" y="168.28" width="2.44" height="52.72"/><rect class="cls-25" x="123.03" y="168.28" width="2.44" height="52.72"/><rect class="cls-26" x="125.48" y="168.28" width="2.44" height="52.72"/><rect class="cls-27" x="127.92" y="168.28" width="2.44" height="52.72"/><rect class="cls-28" x="130.37" y="168.28" width="2.44" height="52.72"/><rect class="cls-29" x="132.81" y="168.28" width="2.44" height="52.72"/><rect class="cls-30" x="135.25" y="168.28" width="2.44" height="52.72"/><rect class="cls-31" x="137.7" y="168.28" width="2.44" height="52.72"/><rect class="cls-32" x="140.14" y="168.28" width="2.44" height="52.72"/><rect class="cls-33" x="142.59" y="168.28" width="2.44" height="52.72"/><rect class="cls-34" x="145.03" y="168.28" width="2.44" height="52.72"/><rect class="cls-35" x="147.47" y="168.28" width="2.44" height="52.72"/><rect class="cls-36" x="149.92" y="168.28" width="2.44" height="52.72"/><rect class="cls-37" x="152.36" y="168.28" width="2.44" height="52.72"/><rect class="cls-38" x="154.81" y="168.28" width="2.44" height="52.72"/><rect class="cls-39" x="157.25" y="168.28" width="2.44" height="52.72"/><rect class="cls-40" x="159.69" y="168.28" width="2.44" height="52.72"/><rect class="cls-41" x="162.14" y="168.28" width="2.44" height="52.72"/><rect class="cls-42" x="164.58" y="168.28" width="2.44" height="52.72"/><rect class="cls-43" x="167.03" y="168.28" width="2.44" height="52.72"/><rect class="cls-44" x="169.47" y="168.28" width="2.44" height="52.72"/><rect class="cls-45" x="171.91" y="168.28" width="2.44" height="52.72"/><rect class="cls-46" x="174.36" y="168.28" width="2.44" height="52.72"/><rect class="cls-47" x="176.8" y="168.28" width="2.44" height="52.72"/><rect class="cls-48" x="179.25" y="168.28" width="2.44" height="52.72"/><rect class="cls-49" x="181.69" y="168.28" width="2.44" height="52.72"/><rect class="cls-50" x="184.13" y="168.28" width="2.44" height="52.72"/><rect class="cls-51" x="186.58" y="168.28" width="2.44" height="52.72"/><rect class="cls-52" x="189.02" y="168.28" width="2.44" height="52.72"/><rect class="cls-53" x="191.47" y="168.28" width="2.44" height="52.72"/><rect class="cls-54" x="193.91" y="168.28" width="2.44" height="52.72"/><rect class="cls-55" x="196.36" y="168.28" width="2.44" height="52.72"/><rect class="cls-56" x="198.8" y="168.28" width="2.44" height="52.72"/><rect class="cls-57" x="201.24" y="168.28" width="2.44" height="52.72"/><rect class="cls-58" x="203.69" y="168.28" width="2.44" height="52.72"/><rect class="cls-59" x="206.13" y="168.28" width="2.44" height="52.72"/></g><g class="cls-60"><rect class="cls-7" x="28.18" width="3.7" height="222.77"/><rect class="cls-8" x="31.88" width="3.7" height="222.77"/><rect class="cls-9" x="35.57" width="3.7" height="222.77"/><rect class="cls-10" x="39.27" width="3.7" height="222.77"/><rect class="cls-11" x="42.97" width="3.7" height="222.77"/><rect class="cls-12" x="46.67" width="3.7" height="222.77"/><rect class="cls-13" x="50.36" width="3.7" height="222.77"/><rect class="cls-14" x="54.06" width="3.7" height="222.77"/><rect class="cls-15" x="57.76" width="3.7" height="222.77"/><rect class="cls-16" x="61.46" width="3.7" height="222.77"/><rect class="cls-17" x="65.15" width="3.7" height="222.77"/><rect class="cls-18" x="68.85" width="3.7" height="222.77"/><rect class="cls-19" x="72.55" width="3.7" height="222.77"/><rect class="cls-20" x="76.25" width="3.7" height="222.77"/><rect class="cls-21" x="79.94" width="3.7" height="222.77"/><rect class="cls-22" x="83.64" width="3.7" height="222.77"/><rect class="cls-23" x="87.34" width="3.7" height="222.77"/><rect class="cls-24" x="91.04" width="3.7" height="222.77"/><rect class="cls-25" x="94.73" width="3.7" height="222.77"/><rect class="cls-26" x="98.43" width="3.7" height="222.77"/><rect class="cls-27" x="102.13" width="3.7" height="222.77"/><rect class="cls-28" x="105.83" width="3.7" height="222.77"/><rect class="cls-29" x="109.52" width="3.7" height="222.77"/><rect class="cls-30" x="113.22" width="3.7" height="222.77"/><rect class="cls-31" x="116.92" width="3.7" height="222.77"/><rect class="cls-32" x="120.62" width="3.7" height="222.77"/><rect class="cls-33" x="124.31" width="3.7" height="222.77"/><rect class="cls-34" x="128.01" width="3.7" height="222.77"/><rect class="cls-35" x="131.71" width="3.7" height="222.77"/><rect class="cls-36" x="135.41" width="3.7" height="222.77"/><rect class="cls-37" x="139.1" width="3.7" height="222.77"/><rect class="cls-38" x="142.8" width="3.7" height="222.77"/><rect class="cls-39" x="146.5" width="3.7" height="222.77"/><rect class="cls-40" x="150.2" width="3.7" height="222.77"/><rect class="cls-41" x="153.89" width="3.7" height="222.77"/><rect class="cls-42" x="157.59" width="3.7" height="222.77"/><rect class="cls-43" x="161.29" width="3.7" height="222.77"/><rect class="cls-44" x="164.99" width="3.7" height="222.77"/><rect class="cls-45" x="168.68" width="3.7" height="222.77"/><rect class="cls-46" x="172.38" width="3.7" height="222.77"/><rect class="cls-47" x="176.08" width="3.7" height="222.77"/><rect class="cls-48" x="179.78" width="3.7" height="222.77"/><rect class="cls-49" x="183.47" width="3.7" height="222.77"/><rect class="cls-50" x="187.17" width="3.7" height="222.77"/><rect class="cls-51" x="190.87" width="3.7" height="222.77"/><rect class="cls-52" x="194.57" width="3.7" height="222.77"/><rect class="cls-53" x="198.26" width="3.7" height="222.77"/><rect class="cls-54" x="201.96" width="3.7" height="222.77"/><rect class="cls-55" x="205.66" width="3.7" height="222.77"/><rect class="cls-56" x="209.36" width="3.7" height="222.77"/><rect class="cls-57" x="213.05" width="3.7" height="222.77"/><rect class="cls-58" x="216.75" width="3.7" height="222.77"/><rect class="cls-59" x="220.45" width="3.7" height="222.77"/></g><path class="cls-59" d="M207.87,103.35V108h-2.74V94.74h5.19a6.27,6.27,0,0,1,2.11.33A4.52,4.52,0,0,1,214,96a3.92,3.92,0,0,1,1,1.4,4.53,4.53,0,0,1,.34,1.76,4.34,4.34,0,0,1-.34,1.74,3.61,3.61,0,0,1-1,1.32,4.51,4.51,0,0,1-1.57.84,6.89,6.89,0,0,1-2.11.3Zm0-2.22h2.45a3.1,3.1,0,0,0,1-.15,1.86,1.86,0,0,0,.69-.41,1.58,1.58,0,0,0,.4-.63,2.39,2.39,0,0,0,.13-.79,2.69,2.69,0,0,0-.13-.83,2,2,0,0,0-.4-.7,1.91,1.91,0,0,0-.69-.49,2.54,2.54,0,0,0-1-.18h-2.45Z"/><path class="cls-59" d="M228,108h-2.74v-5.7h-5.34V108H217.2V94.74h2.74v5.39h5.34V94.74H228Z"/><path class="cls-59" d="M241.33,101.69a8.47,8.47,0,0,1-.41,2.74,5.92,5.92,0,0,1-1.16,2.05,5,5,0,0,1-1.79,1.29,6,6,0,0,1-4.58,0,5.14,5.14,0,0,1-1.79-1.29,6,6,0,0,1-1.17-2.05,8.31,8.31,0,0,1-.42-2.74v-.58a8.4,8.4,0,0,1,.42-2.73,6,6,0,0,1,1.16-2.06,5,5,0,0,1,1.79-1.3A6,6,0,0,1,238,95a5,5,0,0,1,1.79,1.3,6,6,0,0,1,1.17,2.06,8.43,8.43,0,0,1,.42,2.73Zm-2.78-.6a5.6,5.6,0,0,0-.75-3.18,2.64,2.64,0,0,0-4.27,0,5.6,5.6,0,0,0-.75,3.18v.6a7.71,7.71,0,0,0,.2,1.84,4.11,4.11,0,0,0,.57,1.34,2.46,2.46,0,0,0,.91.82,2.65,2.65,0,0,0,1.23.28,2.41,2.41,0,0,0,2.13-1.1,5.7,5.7,0,0,0,.74-3.19Z"/><path class="cls-59" d="M252.56,97h-4.07V108h-2.74V97h-4V94.74h10.83Z"/><path class="cls-59" d="M264.79,101.69a8.47,8.47,0,0,1-.41,2.74,5.92,5.92,0,0,1-1.16,2.05,5,5,0,0,1-1.79,1.29,6,6,0,0,1-4.58,0,5.14,5.14,0,0,1-1.79-1.29,6,6,0,0,1-1.17-2.05,8.31,8.31,0,0,1-.42-2.74v-.58a8.4,8.4,0,0,1,.42-2.73A6,6,0,0,1,255,96.31a5,5,0,0,1,1.79-1.3,6,6,0,0,1,4.58,0,5,5,0,0,1,1.79,1.3,6,6,0,0,1,1.17,2.06,8.43,8.43,0,0,1,.42,2.73Zm-2.78-.6a5.6,5.6,0,0,0-.75-3.18,2.64,2.64,0,0,0-4.27,0,5.6,5.6,0,0,0-.75,3.18v.6a7.71,7.71,0,0,0,.2,1.84,4.11,4.11,0,0,0,.57,1.34,2.46,2.46,0,0,0,.91.82,2.65,2.65,0,0,0,1.23.28,2.41,2.41,0,0,0,2.13-1.1,5.7,5.7,0,0,0,.74-3.19Z"/><path class="cls-59" d="M277.3,106.35a4.45,4.45,0,0,1-.65.61,4.93,4.93,0,0,1-1,.6,7.54,7.54,0,0,1-1.47.47,9,9,0,0,1-1.94.19,6.29,6.29,0,0,1-2.35-.42,4.94,4.94,0,0,1-1.82-1.25,5.68,5.68,0,0,1-1.17-2,8.33,8.33,0,0,1-.42-2.74V101a8.74,8.74,0,0,1,.4-2.75,5.73,5.73,0,0,1,1.12-2A4.76,4.76,0,0,1,269.73,95a5.91,5.91,0,0,1,2.29-.43,6.94,6.94,0,0,1,2.24.32,4.42,4.42,0,0,1,1.58.91,4.15,4.15,0,0,1,1,1.4A6.14,6.14,0,0,1,277.3,99h-2.67a3.93,3.93,0,0,0-.26-.91,2.08,2.08,0,0,0-.47-.69,2,2,0,0,0-.75-.44,3.19,3.19,0,0,0-1.05-.16A2.43,2.43,0,0,0,270,97.83a5.58,5.58,0,0,0-.73,3.16v.8a5.26,5.26,0,0,0,.79,3.16,2.72,2.72,0,0,0,2.33,1.07,5.1,5.1,0,0,0,.86-.06,3.72,3.72,0,0,0,.63-.16,2.09,2.09,0,0,0,.43-.21,1.82,1.82,0,0,0,.28-.22v-2.29h-2.49v-2h5.23Z"/><path class="cls-59" d="M284.44,103.17h-2.18V108h-2.74V94.74h4.94a7.56,7.56,0,0,1,2.06.26,4.34,4.34,0,0,1,1.54.77A3.37,3.37,0,0,1,289,97a4.18,4.18,0,0,1,.34,1.74,4.82,4.82,0,0,1-.16,1.31,3.42,3.42,0,0,1-1.22,1.82,4.84,4.84,0,0,1-1,.58l2.88,5.43V108h-2.94Zm-2.18-2.22h2.21a2.89,2.89,0,0,0,.95-.14,1.82,1.82,0,0,0,.68-.4,1.68,1.68,0,0,0,.41-.62,2.25,2.25,0,0,0,.14-.81,2,2,0,0,0-.53-1.48,2.22,2.22,0,0,0-1.64-.54h-2.2Z"/><path class="cls-59" d="M299,105.29h-4.8l-.91,2.74h-2.91l5-13.3h2.54l5,13.3h-2.91Zm-4.06-2.22h3.32l-1.67-5Z"/><path class="cls-59" d="M306.78,103.35V108H304V94.74h5.19a6.27,6.27,0,0,1,2.11.33,4.52,4.52,0,0,1,1.57.92,3.92,3.92,0,0,1,1,1.4,4.53,4.53,0,0,1,.34,1.76,4.34,4.34,0,0,1-.34,1.74,3.61,3.61,0,0,1-1,1.32,4.51,4.51,0,0,1-1.57.84,6.89,6.89,0,0,1-2.11.3Zm0-2.22h2.45a3.1,3.1,0,0,0,1-.15,1.86,1.86,0,0,0,.69-.41,1.58,1.58,0,0,0,.4-.63,2.39,2.39,0,0,0,.13-.79,2.69,2.69,0,0,0-.13-.83,2,2,0,0,0-.4-.7,1.91,1.91,0,0,0-.69-.49,2.54,2.54,0,0,0-1-.18h-2.45Z"/><path class="cls-59" d="M326.93,108h-2.74v-5.7h-5.34V108h-2.74V94.74h2.74v5.39h5.34V94.74h2.74Z"/><path class="cls-59" d="M333.65,100.73l2.77-6h3l-4.37,8.48V108h-2.79v-4.82l-4.37-8.48h3Z"/></svg>